#!OML:ASF H:\Terrain\Patient Classification 1\Terrain2\Thursday\justin.ASF
:FULLY-SPECIFIED
:DEGREES
2122
root -1.45261 17.3224 -20.1674 -174.001 -66.8273 -185.754
lowerback 5.37841 0.316765 -1.065
upperback 2.35991 0.317791 2.02458
thorax -0.605805 0.112694 2.66122
lowerneck -12.928 3.39717 -5.9657
upperneck 38.5406 5.08743 -0.95327
head 15.6619 0.385828 1.28046
rclavicle 1.68967e-014 -1.82882e-014
rhumerus -32.3737 -12.4945 -75.6851
rradius 28.5186
rwrist -11.6637
rhand -22.9232 12.2221
rfingers 7.12502
rthumb 3.51729 -17.7287
lclavicle 1.68967e-014 -1.82882e-014
lhumerus -33.1522 6.05606 83.3794
lradius 31.8255
lwrist 1.33391
lhand -16.1965 21.0803
lfingers 7.12502
lthumb 10.0106 50.8223
rfemur -15.1937 -14.627 17.9911
rtibia 55.3194
rfoot -15.1616 -15.5601
rtoes 10.8354
lfemur -8.87475 9.50035 -22.5607
ltibia 24.6299
lfoot -12.0968 -7.31643
ltoes 8.85363
2123
root -1.46924 17.3028 -20.1801 -173.868 -67.4252 -186.012
lowerback 5.38837 0.429839 -1.05178
upperback 2.44937 0.466016 1.977
thorax -0.526997 0.184917 2.59615
lowerneck -13.0876 3.31066 -6.20595
upperneck 38.5451 4.96071 -0.633167
head 15.6835 0.353559 1.44586
rclavicle -1.88845e-015 1.82882e-014
rhumerus -32.2679 -12.6673 -75.8175
rradius 28.4906
rwrist -11.7716
rhand -22.8793 12.2666
rfingers 7.12502
rthumb 3.55962 -17.6835
lclavicle -1.88845e-015 1.82882e-014
lhumerus -32.7463 5.97587 83.384
lradius 31.5408
lwrist 2.07831
lhand -16.9296 21.3998
lfingers 7.12502
lthumb 9.30329 51.1745
rfemur -15.2315 -13.787 17.8121
rtibia 55.5274
rfoot -15.7151 -13.9398
rtoes 8.80719
lfemur -8.51731 10.0451 -22.5701
ltibia 24.4621
lfoot -12.5994 -7.8804
ltoes 4.92974
2124
root -1.48954 17.2981 -20.1973 -173.922 -68.0559 -186.077
lowerback 5.48108 0.396871 -1.01756
upperback 2.44951 0.423651 1.92153
thorax -0.575622 0.164881 2.5218
lowerneck -13.1335 3.38891 -6.15959
upperneck 38.4814 5.07672 -0.57492
head 15.6557 0.428706 1.48432
rclavicle -6.40087e-014 -3.97569e-015
rhumerus -32.2572 -12.3636 -76.2137
rradius 28.5294
rwrist -11.8524
rhand -23.0578 12.3799
rfingers 7.12502
rthumb 3.38733 -17.573
lclavicle -6.40087e-014 -3.97569e-015
lhumerus -32.4856 6.98998 82.7846
lradius 30.9335
lwrist 2.21555
lhand -17.5989 21.2779
lfingers 7.12502
lthumb 8.65745 51.0804
rfemur -15.1054 -13.0432 17.7251
rtibia 55.4694
rfoot -16.2518 -12.2758
rtoes 7.31935
lfemur -8.33478 9.30983 -22.45
ltibia 24.481
lfoot -11.977 -8.14563
ltoes 11.3823
2125
root -1.50041 17.3054 -20.2207 -173.525 -68.7584 -186.628
lowerback 5.71956 0.286367 -1.2341
upperback 2.3428 0.26898 1.82331
thorax -0.810471 0.091794 2.5514
lowerneck -12.9346 3.48816 -5.85439
upperneck 38.4427 5.24086 -0.907928
head 15.6093 0.497687 1.31037
rclavicle 2.94201e-014 -2.14687e-014
rhumerus -32.364 -12.3735 -76.5755
rradius 28.5178
rwrist -11.3624
rhand -23.0339 12.2264
rfingers 7.12502
rthumb 3.41037 -17.7261
lclavicle 2.94201e-014 -2.14687e-014
lhumerus -32.6413 8.12821 82.1391
lradius 30.6674
lwrist 1.82495
lhand -17.6303 21.3766
lfingers 7.12502
lthumb 8.62711 51.1803
rfemur -15.0062 -12.2229 17.5093
rtibia 55.3374
rfoot -17.084 -10.6418
rtoes 7.86954
lfemur -8.23924 9.26605 -22.6036
ltibia 24.4573
lfoot -12.1209 -8.06006
ltoes 7.05523
2126
root -1.50633 17.3135 -20.2375 -173.484 -69.4922 -186.643
lowerback 5.81411 0.224757 -1.17784
upperback 2.25343 0.19292 1.78824
thorax -0.950659 0.0576057 2.48837
lowerneck -12.8066 3.48533 -5.63529
upperneck 38.4231 5.24801 -1.13123
head 15.5872 0.504844 1.17573
rclavicle -8.94531e-016 -1.03368e-014
rhumerus -32.3568 -12.6713 -76.851
rradius 28.4429
rwrist -10.5082
rhand -23.2226 11.9711
rfingers 7.12502
rthumb 3.22816 -17.9842
lclavicle -8.94531e-016 -1.03368e-014
lhumerus -32.7811 8.4095 81.8711
lradius 30.6893
lwrist 1.89873
lhand -18.0252 22.2067
lfingers 7.12502
lthumb 8.24601 52.0258
rfemur -15.0906 -11.3232 17.5763
rtibia 55.0652
rfoot -17.5811 -9.17812
rtoes 7.7153
lfemur -8.29529 8.88346 -22.5445
ltibia 24.5773
lfoot -12.3745 -7.83192
ltoes 3.40586
